<?xml version="1.0" encoding="UTF-8"?>
<svg id="Layer_7" xmlns="http://www.w3.org/2000/svg" version="1.1" viewBox="0 0 515 309">
  <!-- Generator: Adobe Illustrator 29.4.0, SVG Export Plug-In . SVG Version: 2.1.0 Build 152)  -->
  <defs>
    <style>
      .st0, .st1, .st2, .st3 {
        stroke: #fff;
      }

      .st0, .st1, .st3 {
        fill: none;
      }

      .st0, .st2, .st3 {
        stroke-miterlimit: 10;
      }

      .st4 {
        font-family: MyriadPro-SemiboldSemiCn, 'Myriad Pro';
        font-size: 12px;
        font-weight: 600;
      }

      .st4, .st2 {
        fill: #fff;
      }

      .st1 {
        stroke-linejoin: round;
      }

      .st1, .st3 {
        stroke-linecap: round;
      }
    </style>
  </defs>
  <path class="st0" d="M345.93,99.35c-1.06,2.12-6.26,2.19-9.81.28-4.06-2.18-6.79-7.36-5.36-9.39,1.31-1.86,6.05-.93,9.04.64,3.71,1.95,7.26,6.24,6.14,8.47Z"/>
  <path class="st0" d="M367.76,107.51c-1.09,2.11-5.98,2.1-9.32.56-3.69-1.69-6.95-5.91-5.84-8.19,1.04-2.13,5.71-2.26,8.94-.94,4.07,1.67,7.39,6.28,6.21,8.56Z"/>
  <path class="st0" d="M378.53,105.83c-.71,1.02-3.64.34-5.61-.97-2.17-1.45-4.03-4.24-3.3-5.35.68-1.04,3.49-.47,5.4.71,2.41,1.49,4.28,4.51,3.52,5.61Z"/>
  <path class="st1" d="M349.62,162.76c1.28.71,3.18,1.63,5.6,2.35,9.72,2.9,23.63,1.24,27.15-6.49,1.07-2.35,1.42-5.78-.19-8.28-2.37-3.68-7.77-3.47-15.62-4.14-5.44-.46-12.89-1.42-21.84-3.58.97,2.37,1.92,5.06,2.73,8.05,1.22,4.48,1.85,8.58,2.16,12.09Z"/>
  <path class="st1" d="M349.76,162.98c3.92,1.88,7.38,2.73,9.81,3.14,5.39.91,8.42.16,9.5-.15,1.58-.46,2.52-.73,3.36-1.58,2.57-2.62,2-8.57-.9-11.75-2.26-2.47-5-2.27-12.22-3.51-5.71-.98-10.33-2.2-13.43-3.11.89,2.38,1.77,5.14,2.48,8.25.74,3.19,1.16,6.13,1.4,8.71Z"/>
  <path class="st3" d="M301.11,103.41c-.41,1.97-.78,4.06-1.06,6.28-.56,4.48-.67,8.53-.56,12,1.46,1.34,3.87,3.17,7.25,4.33,1.38.47,2.72.76,4,.92-3.1-6.84-7.11-17.45-9.62-23.53Z"/>
  <path class="st0" d="M363.12,85.45c-.42.45-.93.89-1.54,1.29-3.16,2.07-7.51,1.93-10.64-.09-2.15-1.39-4.68-4.28-4.33-7.53.1-.93.41-1.67.69-2.2-9.29-4.48-17.23-5.27-21.89-5.34-6.3-.1-16.11-.28-19.95,5.65-.54.83-2.96,4.86-.19,13.55,7.55,23.66,44.32,52.93,70.78,41.79,3.13-1.32,9.9-4.17,11.86-10.35,3.28-10.35-8.26-25.67-24.79-36.76Z"/>
  <path class="st2" d="M350.94,86.65c-.23-.15-1.51-1-2.62-2.38-.39.05-.68.17-.79.39-.43.84,1.57,3.02,3.78,4.08,2.04.98,4.78,1.25,5.14.41.1-.23.02-.55-.2-.92-1.87-.03-3.74-.57-5.31-1.58Z"/>
  <path class="st0" d="M350.94,86.65c-.31-.2-2.45-1.63-3.62-3.89-1.86-.13-3.42.17-3.89,1.08-.95,1.83,2.49,6.06,6.49,7.91,3.71,1.71,8.86,1.83,9.69,0,.41-.91-.25-2.3-1.48-3.68-2.47.43-5.11-.05-7.21-1.41Z"/>
  <path class="st0" d="M364.49,83.6c-.83,1.83-5.98,1.71-9.69,0-4.01-1.85-7.45-6.08-6.49-7.91.92-1.76,5.88-1.26,9.32.28,3.95,1.77,7.74,5.72,6.87,7.62Z"/>
  <path class="st0" d="M407.91,148.78c-14.99-35.96-20.41-45.07-27.67-52.78-5.53-5.88-10.96-10.24-15.68-13.45.08.39.07.75-.07,1.05-.83,1.83-5.98,1.71-9.69,0-4.01-1.85-7.45-6.08-6.49-7.91.27-.51.88-.83,1.69-.98-5.87-2.34-36.11-13.77-47.54.26-6.92,8.49-3.47,22.03-1.74,27.48,3.45,8.19,10.45,27.25,13.27,30.49,3.4,3.91,14.54,3.81,18.73,4.14,3.38.27,5.97,1.03,7.53,1.69,1.97.85,3.52,2.22,4.79,3.92,8.81,2.11,16.16,3.05,21.54,3.51,7.85.67,13.26.46,15.62,4.14,1.61,2.5,1.26,5.94.19,8.28-3.52,7.73-17.43,9.39-27.15,6.49-.71-.21-1.38-.44-2-.68,1.53,4.14,4.13,11.03,8.56,22.3,3.27,8.32,15.95,40.62,36.24,42.3,9.41.78,20.12-5,25.18-13.58,4.58-7.77,4.84-18.34-15.3-66.67Z"/>
  <path class="st0" d="M166.32,99.35c1.06,2.12,6.26,2.19,9.81.28,4.06-2.18,6.79-7.36,5.36-9.39-1.31-1.86-6.05-.93-9.04.64-3.71,1.95-7.26,6.24-6.14,8.47Z"/>
  <path class="st0" d="M144.48,107.51c1.09,2.11,5.98,2.1,9.32.56,3.69-1.69,6.95-5.91,5.84-8.19-1.04-2.13-5.71-2.26-8.94-.94-4.07,1.67-7.39,6.28-6.21,8.56Z"/>
  <path class="st0" d="M133.72,105.83c.71,1.02,3.64.34,5.61-.97,2.17-1.45,4.03-4.24,3.3-5.35-.68-1.04-3.49-.47-5.4.71-2.41,1.49-4.28,4.51-3.52,5.61Z"/>
  <path class="st1" d="M162.63,162.76c-1.28.71-3.18,1.63-5.6,2.35-9.72,2.9-23.63,1.24-27.15-6.49-1.07-2.35-1.42-5.78.19-8.28,2.37-3.68,7.77-3.47,15.62-4.14,5.44-.46,12.89-1.42,21.84-3.58-.97,2.37-1.92,5.06-2.73,8.05-1.22,4.48-1.85,8.58-2.16,12.09Z"/>
  <path class="st1" d="M162.49,162.98c-3.92,1.88-7.38,2.73-9.81,3.14-5.39.91-8.42.16-9.5-.15-1.58-.46-2.52-.73-3.36-1.58-2.57-2.62-2-8.57.9-11.75,2.26-2.47,5-2.27,12.22-3.51,5.71-.98,10.33-2.2,13.43-3.11-.89,2.38-1.77,5.14-2.48,8.25-.74,3.19-1.16,6.13-1.4,8.71Z"/>
  <path class="st3" d="M211.14,103.41c.41,1.97.78,4.06,1.06,6.28.56,4.48.67,8.53.56,12-1.46,1.34-3.87,3.17-7.25,4.33-1.38.47-2.72.76-4,.92,3.1-6.84,7.11-17.45,9.62-23.53Z"/>
  <path class="st0" d="M149.13,85.45c.42.45.93.89,1.54,1.29,3.16,2.07,7.51,1.93,10.64-.09,2.15-1.39,4.68-4.28,4.33-7.53-.1-.93-.41-1.67-.69-2.2,9.29-4.48,17.23-5.27,21.89-5.34,6.3-.1,16.11-.28,19.95,5.65.54.83,2.96,4.86.19,13.55-7.55,23.66-44.32,52.93-70.78,41.79-3.13-1.32-9.9-4.17-11.86-10.35-3.28-10.35,8.26-25.67,24.79-36.76Z"/>
  <path class="st0" d="M161.31,86.65c.23-.15,1.51-1,2.62-2.38.39.05.68.17.79.39.43.84-1.57,3.02-3.78,4.08-2.04.98-4.78,1.25-5.14.41-.1-.23-.02-.55.2-.92,1.87-.03,3.74-.57,5.31-1.58Z"/>
  <path class="st2" d="M161.31,86.65c.31-.2,2.45-1.63,3.62-3.89,1.86-.13,3.42.17,3.89,1.08.95,1.83-2.49,6.06-6.49,7.91-3.71,1.71-8.86,1.83-9.69,0-.41-.91.25-2.3,1.48-3.68,2.47.43,5.11-.05,7.21-1.41Z"/>
  <path class="st0" d="M147.76,83.6c.83,1.83,5.98,1.71,9.69,0,4.01-1.85,7.45-6.08,6.49-7.91-.92-1.76-5.88-1.26-9.32.28-3.95,1.77-7.74,5.72-6.87,7.62Z"/>
  <path class="st0" d="M104.34,148.78c14.99-35.96,20.41-45.07,27.67-52.78,5.53-5.88,10.96-10.24,15.68-13.45-.08.39-.07.75.07,1.05.83,1.83,5.98,1.71,9.69,0,4.01-1.85,7.45-6.08,6.49-7.91-.27-.51-.88-.83-1.69-.98,5.87-2.34,36.11-13.77,47.54.26,6.92,8.49,3.47,22.03,1.74,27.48-3.45,8.19-10.45,27.25-13.27,30.49-3.4,3.91-14.54,3.81-18.73,4.14-3.38.27-5.97,1.03-7.53,1.69-1.97.85-3.52,2.22-4.79,3.92-8.81,2.11-16.16,3.05-21.54,3.51-7.85.67-13.26.46-15.62,4.14-1.61,2.5-1.26,5.94-.19,8.28,3.52,7.73,17.43,9.39,27.15,6.49.71-.21,1.38-.44,2-.68-1.53,4.14-4.13,11.03-8.56,22.3-3.27,8.32-15.95,40.62-36.24,42.3-9.41.78-20.12-5-25.18-13.58-4.58-7.77-4.84-18.34,15.3-66.67Z"/>
  <polyline class="st0" points="360.2 103.63 383.33 80.49 458.42 80.49"/>
  <polyline class="st0" points="356.38 79.75 375.84 60.29 440.64 60.29"/>
  <polyline class="st0" points="155.27 78.81 135.81 59.35 71.01 59.35"/>
  <polyline class="st0" points="335.6 94.04 302.99 61.42 262.75 61.42"/>
  <polyline class="st0" points="356.49 155.49 336.16 175.82 262 175.82"/>
  <polyline class="st0" points="303.04 120.48 292.68 130.84 231.13 130.84"/>
  <text class="st4" transform="translate(377.33 56.76)"><tspan x="0" y="0">Umschauen</tspan></text>
  <text class="st4" transform="translate(236.56 127.08)"><tspan x="0" y="0">Greifen</tspan></text>
  <text class="st4" transform="translate(258.48 170.87)"><tspan x="0" y="0">Höhe anpassen</tspan></text>
  <text class="st4" transform="translate(90.45 52.03)"><tspan x="0" y="0">Gehen</tspan></text>
  <text class="st4" transform="translate(385.05 76.2)"><tspan x="0" y="0">Sprinten</tspan></text>
  <text class="st4" transform="translate(227.63 57.5)"><tspan x="0" y="0">Maße anzeigen</tspan></text>
</svg>